<svg xmlns="http://www.w3.org/2000/svg" viewBox="0 0 392.174 128" width="392.174" height="128" role="img" aria-label="Apex Measure Pro">
  <title>Apex Measure Pro</title>
  <defs>
    <linearGradient id="kL" x1="0" y1="0" x2="0.35" y2="1">
      <stop offset="0" stop-color="#6B7684"/><stop offset="1" stop-color="#28313C"/></linearGradient>
    <linearGradient id="kR" x1="1" y1="0" x2="0.6" y2="1">
      <stop offset="0" stop-color="#1B222B"/><stop offset="1" stop-color="#05080B"/></linearGradient>
    <radialGradient id="kG" cx="0.5" cy="0.5" r="0.5">
      <stop offset="0" stop-color="#FF5A1F" stop-opacity="0.85"/>
      <stop offset="0.35" stop-color="#FF5A1F" stop-opacity="0.35"/>
      <stop offset="1" stop-color="#FF5A1F" stop-opacity="0"/></radialGradient>
  </defs><g>
    <!-- facets: the peak, lit from the upper left -->
    <polygon points="14,100 64,20 64,60 40,100" fill="url(#kL)"/>
    <polygon points="64,20 114,100 88,100 64,60" fill="url(#kR)"/>
    <line x1="64" y1="21" x2="64" y2="59" stroke="#FFFFFF" stroke-opacity="0.25" stroke-width="0.8"/>
    <line x1="14.6" y1="99.6" x2="63.6" y2="21" stroke="#FFFFFF" stroke-opacity="0.35" stroke-width="0.9"/>
    <!-- the measurement: laser plumb from the apex onto the 1/8" scale -->
    <line x1="64" y1="66" x2="64" y2="112" stroke="#FF5A1F" stroke-width="1.6" stroke-dasharray="3 3"/>
    <g stroke="#16181A" stroke-width="1.6" stroke-linecap="square">
      <line x1="14" y1="112" x2="114" y2="112"/><line x1="14.0" y1="112" x2="14.0" y2="121"/><line x1="26.5" y1="112" x2="26.5" y2="115"/><line x1="39.0" y1="112" x2="39.0" y2="117"/><line x1="51.5" y1="112" x2="51.5" y2="115"/><line x1="64.0" y1="112" x2="64.0" y2="119"/><line x1="76.5" y1="112" x2="76.5" y2="115"/><line x1="89.0" y1="112" x2="89.0" y2="117"/><line x1="101.5" y1="112" x2="101.5" y2="115"/><line x1="114.0" y1="112" x2="114.0" y2="121"/></g>
    <!-- the apex point -->
    <circle cx="64" cy="20" r="22" fill="url(#kG)"/>
    <circle cx="64" cy="20" r="4.2" fill="#FF5A1F"/>
    <circle cx="64" cy="20" r="1.8" fill="#FFE2D4"/></g><path transform="translate(150 74) scale(0.62)" fill="#0F141A" d="M1.53046875 0.0 35.332666015625 -68.754345703125H57.967236328125004L91.76943359375001 0.0H69.74355468750001L64.5478515625 -11.017480468750001H27.65205078125L22.510693359375 0.0ZM34.467236328125004 -25.926074218750003H57.732666015625L51.471728515625 -39.900097656250004Q51.080419921875006 -40.837060546875 50.374975585937506 -42.552294921875Q49.669531250000006 -44.267529296875004 48.909741210937504 -46.2186279296875Q48.149951171875 -48.1697265625 47.508642578125006 -49.846899414062506Q46.867333984375 -51.524072265625 46.549951171875 -52.33056640625H45.804296875000006Q45.067333984375004 -50.493603515625004 44.1075439453125 -48.11098632812501Q43.14775390625 -45.728369140625006 42.260791015625 -43.491406250000004Q41.373828125 -41.254443359375 40.728173828125 -39.854443359375004Z M107.75004882812502 0.0V-68.754345703125H160.81298828125Q167.567333984375 -68.754345703125 172.6531982421875 -65.7728271484375Q177.73906250000002 -62.79130859375 180.57058105468752 -57.52392578125Q183.402099609375 -52.256542968750004 183.402099609375 -45.38629593460649Q183.402099609375 -38.450048828125006 180.5205810546875 -33.109838867187506Q177.63906250000002 -27.769628906250002 172.50754394531253 -24.815283203125002Q167.37602539062502 -21.860937500000002 160.63037109375 -21.860937500000002H128.112890625V0.0ZM128.112890625 -36.9521484375H154.96303710937502Q159.48118489583334 -36.9521484375 161.81671549479168 -39.12388966181507Q164.15224609375002 -41.29563088613014 164.15224609375002 -45.29234869970034Q164.15224609375002 -48.00439453125 163.09394461495538 -49.85655286634291Q162.03564313616073 -51.70871120143582 160.00043875558038 -52.68592298353041Q157.96523437500002 -53.663134765625 154.96303710937502 -53.663134765625H128.112890625Z M199.85004882812504 0.0V-68.754345703125H271.52387695312507V-53.663134765625H220.26723632812502V-42.115185546875004H265.14345703125V-27.5130859375H220.26723632812502V-15.091210937500001H272.323876953125V0.0Z M286.04135742187503 0.0 318.56743164062505 -35.545654296875 288.99570312500003 -68.754345703125H315.32587890625007L331.38251953125007 -49.532470703125H332.36513671875L349.13916015625006 -68.754345703125H373.40849609375005L343.77373046875005 -36.40869140625L376.29111328125003 0.0H350.015283203125L330.96733398437505 -22.413183593750002H329.93037109375007L310.41938476562507 0.0Z"/><path transform="translate(152 106) scale(0.19789909574917602)" fill="#5A6066" d="M8.607958984375001 0.0V-68.647998046875H30.5958984375L43.747802734375 -31.839941406250002Q44.39580078125 -30.03193359375 45.2597900390625 -27.363940429687503Q46.123779296875 -24.695947265625 47.009765625 -21.987963867187503Q47.895751953125 -19.27998046875 48.53173828125 -17.147998046875H49.283740234375Q49.8197265625 -19.031982421875 50.6037109375 -21.615966796875Q51.3876953125 -24.199951171875 52.2496826171875 -26.9179443359375Q53.111669921875006 -29.6359375 53.85966796875 -31.795947265625003L67.011572265625 -68.647998046875H88.655517578125V0.0H74.599560546875V-38.203857421875Q74.599560546875 -41.4119140625 74.6755615234375 -44.811962890625004Q74.7515625 -48.212011718750006 74.8775634765625 -50.9120361328125Q75.00356445312501 -53.612060546875 75.0515625 -54.64404296875H74.2515625Q73.907568359375 -53.4560546875 73.107568359375 -50.888037109375006Q72.307568359375 -48.320019531250004 71.45556640625 -45.4919921875Q70.603564453125 -42.66396484375 69.903564453125 -40.595947265625L55.051708984375004 0.0H41.707763671875L26.807910156250003 -40.5439453125Q26.063916015625 -42.595947265625 25.265917968750003 -45.161962890625006Q24.467919921875 -47.727978515625004 23.765917968750003 -50.2760009765625Q23.063916015625 -52.8240234375 22.5119140625 -54.64404296875H21.7119140625Q21.8119140625 -52.664013671875004 21.887915039062502 -49.77797851562501Q21.963916015625003 -46.891943359375006 22.0399169921875 -43.85791015625Q22.11591796875 -40.823876953125 22.11591796875 -38.203857421875V0.0Z M139.907958984375 0.0V-68.647998046875H201.087646484375V-56.780029296875H153.96391601562502V-40.935986328125004H195.919677734375V-29.068017578125H153.96391601562502V-11.867968750000001H201.783642578125V0.0Z M243.21196289062502 0.0 273.6078125 -68.647998046875H290.391796875L320.83964843750005 0.0H305.49169921875L299.51171875 -13.976025390625H263.647900390625L257.667919921875 0.0ZM268.65986328125 -25.6H294.44775390625L287.019775390625 -43.336035156250006Q286.57177734375 -44.384033203125 285.82978515625 -46.222021484375006Q285.08779296875 -48.060009765625004 284.31979980468753 -50.102001953125004Q283.55180664062505 -52.143994140625004 282.87980957031255 -53.9239990234375Q282.20781250000005 -55.70400390625 281.8998046875 -56.53203125H281.255810546875Q280.51181640625003 -54.53203125 279.517822265625 -51.93203125Q278.523828125 -49.33203125 277.6038330078125 -46.984033203125Q276.683837890625 -44.63603515625 276.087841796875 -43.288037109375004Z M394.2998046875 1.2000000000000002Q387.591845703125 1.2000000000000002 381.623876953125 0.09399414062500011Q375.655908203125 -1.01201171875 371.1279296875 -3.5660156250000004Q366.59995117187503 -6.1200195312500005 364.0359619140625 -10.2860107421875Q361.47197265625 -14.452001953125 361.47197265625 -20.57197265625Q361.47197265625 -20.97998046875 361.4979736328125 -21.435986328125Q361.523974609375 -21.8919921875 361.57197265625 -22.143994140625H375.583935546875Q375.5359375 -21.847998046875002 375.4859375 -21.297998046875Q375.4359375 -20.747998046875 375.4359375 -20.20400390625Q375.4359375 -17.0 377.719921875 -14.8419921875Q380.00390625 -12.683984375000001 384.27587890625 -11.601977539062501Q388.5478515625 -10.519970703125 394.31181640625 -10.519970703125Q397.41982421875 -10.519970703125 400.16181640625 -10.8479736328125Q402.90380859375 -11.1759765625 405.16179199218755 -11.8059814453125Q407.41977539062503 -12.435986328125 409.07575683593757 -13.413989257812501Q410.73173828125005 -14.391992187500001 411.61772460937505 -15.715991210937501Q412.50371093750005 -17.039990234375 412.50371093750005 -18.683984375Q412.50371093750005 -21.439990234375003 410.4397216796875 -23.1719970703125Q408.375732421875 -24.90400390625 404.8697509765625 -26.060009765625Q401.36376953125 -27.216015625 396.9617919921875 -28.0980224609375Q392.559814453125 -28.980029296875003 387.88583984375 -29.960034179687504Q383.211865234375 -30.940039062500002 378.8098876953125 -32.442041015625Q374.40791015625 -33.944042968750004 370.9019287109375 -36.19204101562501Q367.395947265625 -38.440039062500006 365.33195800781255 -41.934033203125004Q363.26796875 -45.42802734375 363.26796875 -50.416015625Q363.26796875 -55.216015625000004 365.4379638671875 -58.864013671875Q367.607958984375 -62.51201171875 371.7179443359375 -64.9580078125Q375.8279296875 -67.40400390625 381.5718994140625 -68.6260009765625Q387.315869140625 -69.847998046875 394.463818359375 -69.847998046875Q401.45175781250003 -69.847998046875 407.04572753906257 -68.5780029296875Q412.63969726562505 -67.30800781250001 416.57968750000003 -64.7860107421875Q420.519677734375 -62.264013671875006 422.59567871093753 -58.56201171875Q424.67167968750005 -54.860009765625 424.67167968750005 -49.99599609375V-48.60400390625H410.85971679687503V-49.747998046875004Q410.85971679687503 -52.31201171875 408.7977294921875 -54.168017578125Q406.7357421875 -56.024023437500006 403.1297607421875 -57.076025390625006Q399.52377929687503 -58.128027343750006 394.84379882812505 -58.128027343750006Q389.0478515625 -58.128027343750006 385.223876953125 -57.2540283203125Q381.39990234375 -56.380029296875 379.50791015625 -54.77802734375Q377.61591796875 -53.176025390625 377.61591796875 -51.016015625Q377.61591796875 -48.612011718750004 379.6799072265625 -47.056005859375006Q381.743896484375 -45.5 385.2498779296875 -44.467993164062506Q388.755859375 -43.435986328125004 393.1578369140625 -42.57998046875001Q397.559814453125 -41.723974609375006 402.2337890625 -40.6939697265625Q406.90776367187505 -39.66396484375 411.30974121093755 -38.211962890625Q415.71171875000005 -36.759960937500004 419.21770019531255 -34.461962890625Q422.72368164062505 -32.16396484375 424.78767089843757 -28.7439697265625Q426.85166015625003 -25.323974609375 426.85166015625003 -20.435986328125Q426.85166015625003 -12.5919921875 422.69367675781257 -7.8199951171875Q418.53569335937505 -3.047998046875 411.1937255859375 -0.9239990234375Q403.8517578125 1.2000000000000002 394.2998046875 1.2000000000000002Z M507.227783203125 1.2000000000000002Q496.355859375 1.2000000000000002 488.9198974609375 -2.2279785156250003Q481.483935546875 -5.655957031250001 477.69794921875 -12.2779296875Q473.91196289062503 -18.89990234375 473.91196289062503 -28.327880859375V-68.647998046875H487.967919921875V-28.871875000000003Q487.967919921875 -20.0119140625 492.981884765625 -15.3139404296875Q497.995849609375 -10.615966796875 507.227783203125 -10.615966796875Q516.459716796875 -10.615966796875 521.52568359375 -15.3139404296875Q526.591650390625 -20.0119140625 526.591650390625 -28.871875000000003V-68.647998046875H540.647607421875V-28.327880859375Q540.647607421875 -18.89990234375 536.8356201171875 -12.2779296875Q533.0236328125 -5.655957031250001 525.611669921875 -2.2279785156250003Q518.19970703125 1.2000000000000002 507.227783203125 1.2000000000000002Z M591.407958984375 0.0V-68.647998046875H636.2916015625Q643.7476074218749 -68.647998046875 648.5796142578124 -65.8800048828125Q653.41162109375 -63.112011718750004 655.815625 -58.2880126953125Q658.2196289062499 -53.464013671875 658.2196289062499 -47.252001953125Q658.2196289062499 -40.839990234375 655.1476318359374 -35.593994140625Q652.075634765625 -30.347998046875002 645.8916503906249 -27.556005859375002L660.283642578125 0.0H644.6916992187499L632.0916992187499 -25.02001953125H605.4639160156249V0.0ZM605.4639160156249 -36.735986328125H633.7556640624999Q638.611669921875 -36.735986328125 641.2396728515625 -39.5639892578125Q643.86767578125 -42.3919921875 643.86767578125 -47.108007812500006Q643.86767578125 -50.216015625000004 642.715673828125 -52.37001953125001Q641.563671875 -54.524023437500006 639.3116699218749 -55.6520263671875Q637.05966796875 -56.780029296875 633.7556640624999 -56.780029296875H605.4639160156249Z M706.807958984375 0.0V-68.647998046875H767.987646484375V-56.780029296875H720.8639160156249V-40.935986328125004H762.819677734375V-29.068017578125H720.8639160156249V-11.867968750000001H768.6836425781249V0.0Z  M877.1079589843749 0.0V-68.647998046875H919.1876464843749Q926.3556640624998 -68.647998046875 931.3056640624999 -65.85200195312501Q936.2556640624999 -63.056005859375006 938.8756591796874 -58.08400878906251Q941.4956542968749 -53.112011718750004 941.4956542968749 -46.40871889467593Q941.4956542968749 -39.80400390625 938.7996582031249 -34.732006835937504Q936.1036621093749 -29.660009765625002 931.00166015625 -26.8380126953125Q925.8996582031249 -24.016015625 918.6316406249999 -24.016015625H891.1639160156249V0.0ZM891.1639160156249 -35.883984375000004H916.4077148437499Q921.5677083333333 -35.883984375000004 924.4057047526042 -38.669114371521836Q927.2437011718749 -41.45424436804367 927.2437011718749 -46.36362605682791Q927.2437011718749 -49.668017578125 925.994331752232 -51.974615973395274Q924.7449623325891 -54.281214368665545 922.3503376116071 -55.53062183277027Q919.9557128906249 -56.780029296875 916.4077148437499 -56.780029296875H891.1639160156249Z M987.0079589843749 0.0V-68.647998046875H1031.8916015624998Q1039.347607421875 -68.647998046875 1044.1796142578123 -65.8800048828125Q1049.01162109375 -63.112011718750004 1051.4156249999999 -58.2880126953125Q1053.8196289062498 -53.464013671875 1053.8196289062498 -47.252001953125Q1053.8196289062498 -40.839990234375 1050.7476318359372 -35.593994140625Q1047.6756347656249 -30.347998046875002 1041.491650390625 -27.556005859375002L1055.8836425781249 0.0H1040.29169921875L1027.6916992187498 -25.02001953125H1001.0639160156248V0.0ZM1001.0639160156248 -36.735986328125H1029.3556640625Q1034.2116699218748 -36.735986328125 1036.8396728515622 -39.5639892578125Q1039.46767578125 -42.3919921875 1039.46767578125 -47.108007812500006Q1039.46767578125 -50.216015625000004 1038.315673828125 -52.37001953125001Q1037.1636718749999 -54.524023437500006 1034.9116699218748 -55.6520263671875Q1032.6596679687498 -56.780029296875 1029.3556640625 -56.780029296875H1001.0639160156248Z M1138.5444926876262 1.2000000000000002Q1126.4463393383592 1.2000000000000002 1117.6271247473046 -2.793994140625Q1108.80791015625 -6.7879882812500005 1104.08193359375 -14.7119873046875Q1099.35595703125 -22.635986328125 1099.35595703125 -34.32529357656898Q1099.35595703125 -46.112011718750004 1104.08193359375 -53.9860107421875Q1108.80791015625 -61.860009765625 1117.6271247473046 -65.85400390625Q1126.4463393383592 -69.847998046875 1138.5444926876262 -69.847998046875Q1150.7557128906249 -69.847998046875 1159.5376708984375 -65.85400390625Q1168.31962890625 -61.860009765625 1173.04560546875 -53.9860107421875Q1177.7715820312499 -46.112011718750004 1177.7715820312499 -34.32529357656898Q1177.7715820312499 -22.635986328125 1173.04560546875 -14.7119873046875Q1168.31962890625 -6.7879882812500005 1159.5376708984375 -2.793994140625Q1150.7557128906249 1.2000000000000002 1138.5444926876262 1.2000000000000002ZM1138.56376953125 -10.615966796875Q1144.2437499999999 -10.615966796875 1148.7937255859374 -12.06796875Q1153.343701171875 -13.519970703125 1156.5956787109376 -16.3499755859375Q1159.84765625 -19.17998046875 1161.6076416015626 -23.413985188802087Q1163.367626953125 -27.64798990885417 1163.367626953125 -33.195996093750004V-35.443994140625Q1163.367626953125 -41.03424925085616 1161.6076416015626 -45.27513243792808Q1159.84765625 -49.516015625 1156.5956787109376 -52.3460205078125Q1153.343701171875 -55.176025390625 1148.7937255859374 -56.6040283203125Q1144.2437499999999 -58.03203125 1138.56376953125 -58.03203125Q1132.8837890625 -58.03203125 1128.3338134765625 -56.6040283203125Q1123.783837890625 -55.176025390625 1120.5318603515625 -52.3460205078125Q1117.2798828124999 -49.516015625 1115.5698974609375 -45.27513243792808Q1113.859912109375 -41.03424925085616 1113.859912109375 -35.443994140625V-33.195996093750004Q1113.859912109375 -27.64798990885417 1115.5698974609375 -23.413985188802087Q1117.2798828124999 -19.17998046875 1120.5318603515625 -16.3499755859375Q1123.783837890625 -13.519970703125 1128.3338134765625 -12.06796875Q1132.8837890625 -10.615966796875 1138.56376953125 -10.615966796875Z"/>
</svg>
